<mxfile host="app.diagrams.net" modified="2023-04-23T08:54:24.599Z" agent="Mozilla/5.0 (Windows NT 10.0; Win64; x64) AppleWebKit/537.36 (KHTML, like Gecko) Chrome/112.0.0.0 Safari/537.36 Edg/112.0.1722.48" etag="Nfk9Wp_foqH23_Q9SuJk" version="21.1.8" type="device">
  <diagram name="第 1 页" id="qkbF3CQeosctW6LIUmNJ">
    <mxGraphModel dx="1195" dy="637" grid="1" gridSize="10" guides="1" tooltips="1" connect="1" arrows="1" fold="1" page="1" pageScale="1" pageWidth="827" pageHeight="1169" math="0" shadow="0">
      <root>
        <mxCell id="0" />
        <mxCell id="1" parent="0" />
        <mxCell id="X1a7NF7hN5z-Y2Y6OMRs-3" value="" style="rounded=1;whiteSpace=wrap;html=1;absoluteArcSize=1;arcSize=14;strokeWidth=2;" vertex="1" parent="1">
          <mxGeometry x="190" y="120" width="220" height="270" as="geometry" />
        </mxCell>
        <mxCell id="X1a7NF7hN5z-Y2Y6OMRs-4" value="&lt;font style=&quot;font-size: 18px;&quot;&gt;&amp;lt;html&amp;gt;&lt;/font&gt;" style="text;html=1;align=center;verticalAlign=middle;resizable=0;points=[];autosize=1;strokeColor=none;fillColor=none;" vertex="1" parent="1">
          <mxGeometry x="190" y="120" width="80" height="40" as="geometry" />
        </mxCell>
        <mxCell id="X1a7NF7hN5z-Y2Y6OMRs-5" value="&lt;font style=&quot;font-size: 18px;&quot;&gt;&amp;lt;/html&amp;gt;&lt;/font&gt;" style="text;html=1;align=center;verticalAlign=middle;resizable=0;points=[];autosize=1;strokeColor=none;fillColor=none;" vertex="1" parent="1">
          <mxGeometry x="180" y="330" width="80" height="40" as="geometry" />
        </mxCell>
        <mxCell id="X1a7NF7hN5z-Y2Y6OMRs-6" value="&lt;font style=&quot;font-size: 18px;&quot;&gt;&amp;lt;head&amp;gt;&lt;/font&gt;" style="text;html=1;align=center;verticalAlign=middle;resizable=0;points=[];autosize=1;strokeColor=none;fillColor=none;" vertex="1" parent="1">
          <mxGeometry x="210" y="140" width="80" height="40" as="geometry" />
        </mxCell>
        <mxCell id="X1a7NF7hN5z-Y2Y6OMRs-7" value="&lt;font style=&quot;font-size: 18px;&quot;&gt;&amp;lt;/head&amp;gt;&lt;/font&gt;" style="text;html=1;align=center;verticalAlign=middle;resizable=0;points=[];autosize=1;strokeColor=none;fillColor=none;" vertex="1" parent="1">
          <mxGeometry x="205" y="200" width="90" height="40" as="geometry" />
        </mxCell>
        <mxCell id="X1a7NF7hN5z-Y2Y6OMRs-8" value="&lt;font style=&quot;font-size: 18px;&quot;&gt;&amp;lt;body&amp;gt;&lt;/font&gt;" style="text;html=1;align=center;verticalAlign=middle;resizable=0;points=[];autosize=1;strokeColor=none;fillColor=none;" vertex="1" parent="1">
          <mxGeometry x="210" y="220" width="80" height="40" as="geometry" />
        </mxCell>
        <mxCell id="X1a7NF7hN5z-Y2Y6OMRs-9" value="&lt;font style=&quot;font-size: 18px;&quot;&gt;&amp;lt;/body&amp;gt;&lt;/font&gt;" style="text;html=1;align=center;verticalAlign=middle;resizable=0;points=[];autosize=1;strokeColor=none;fillColor=none;" vertex="1" parent="1">
          <mxGeometry x="205" y="300" width="90" height="40" as="geometry" />
        </mxCell>
        <mxCell id="X1a7NF7hN5z-Y2Y6OMRs-10" value="&lt;font style=&quot;font-size: 18px;&quot;&gt;&amp;lt;div&amp;gt;&lt;/font&gt;" style="text;html=1;align=center;verticalAlign=middle;resizable=0;points=[];autosize=1;strokeColor=none;fillColor=none;" vertex="1" parent="1">
          <mxGeometry x="225" y="240" width="70" height="40" as="geometry" />
        </mxCell>
        <mxCell id="X1a7NF7hN5z-Y2Y6OMRs-11" value="&lt;font style=&quot;font-size: 18px;&quot;&gt;&amp;lt;/div&amp;gt;&lt;/font&gt;" style="text;html=1;align=center;verticalAlign=middle;resizable=0;points=[];autosize=1;strokeColor=none;fillColor=none;" vertex="1" parent="1">
          <mxGeometry x="270" y="240" width="70" height="40" as="geometry" />
        </mxCell>
        <mxCell id="X1a7NF7hN5z-Y2Y6OMRs-12" value="&lt;font style=&quot;font-size: 18px;&quot;&gt;&amp;lt;script&amp;gt;&lt;/font&gt;" style="text;html=1;align=center;verticalAlign=middle;resizable=0;points=[];autosize=1;strokeColor=none;fillColor=none;" vertex="1" parent="1">
          <mxGeometry x="225" y="270" width="90" height="40" as="geometry" />
        </mxCell>
        <mxCell id="X1a7NF7hN5z-Y2Y6OMRs-13" value="&lt;font style=&quot;font-size: 18px;&quot;&gt;&amp;lt;/script&amp;gt;&lt;/font&gt;" style="text;html=1;align=center;verticalAlign=middle;resizable=0;points=[];autosize=1;strokeColor=none;fillColor=none;" vertex="1" parent="1">
          <mxGeometry x="290" y="270" width="90" height="40" as="geometry" />
        </mxCell>
        <mxCell id="X1a7NF7hN5z-Y2Y6OMRs-15" value="&lt;font style=&quot;font-size: 18px;&quot;&gt;......&lt;/font&gt;" style="text;html=1;align=center;verticalAlign=middle;resizable=0;points=[];autosize=1;strokeColor=none;fillColor=none;" vertex="1" parent="1">
          <mxGeometry x="225" y="160" width="50" height="40" as="geometry" />
        </mxCell>
        <mxCell id="X1a7NF7hN5z-Y2Y6OMRs-29" style="edgeStyle=orthogonalEdgeStyle;rounded=0;orthogonalLoop=1;jettySize=auto;html=1;entryX=0.5;entryY=0;entryDx=0;entryDy=0;" edge="1" parent="1" source="X1a7NF7hN5z-Y2Y6OMRs-21" target="X1a7NF7hN5z-Y2Y6OMRs-22">
          <mxGeometry relative="1" as="geometry" />
        </mxCell>
        <mxCell id="X1a7NF7hN5z-Y2Y6OMRs-21" value="Start" style="strokeWidth=2;html=1;shape=mxgraph.flowchart.start_1;whiteSpace=wrap;" vertex="1" parent="1">
          <mxGeometry x="131.5" y="530" width="100" height="60" as="geometry" />
        </mxCell>
        <mxCell id="X1a7NF7hN5z-Y2Y6OMRs-30" style="edgeStyle=orthogonalEdgeStyle;rounded=0;orthogonalLoop=1;jettySize=auto;html=1;entryX=0.5;entryY=0;entryDx=0;entryDy=0;" edge="1" parent="1" source="X1a7NF7hN5z-Y2Y6OMRs-22" target="X1a7NF7hN5z-Y2Y6OMRs-23">
          <mxGeometry relative="1" as="geometry" />
        </mxCell>
        <mxCell id="X1a7NF7hN5z-Y2Y6OMRs-22" value="Webpack.config.js" style="rounded=1;whiteSpace=wrap;html=1;absoluteArcSize=1;arcSize=14;strokeWidth=2;" vertex="1" parent="1">
          <mxGeometry x="82.75" y="630" width="197.5" height="30" as="geometry" />
        </mxCell>
        <mxCell id="X1a7NF7hN5z-Y2Y6OMRs-32" style="edgeStyle=orthogonalEdgeStyle;rounded=0;orthogonalLoop=1;jettySize=auto;html=1;entryX=0.5;entryY=0;entryDx=0;entryDy=0;" edge="1" parent="1" source="X1a7NF7hN5z-Y2Y6OMRs-23" target="X1a7NF7hN5z-Y2Y6OMRs-28">
          <mxGeometry relative="1" as="geometry" />
        </mxCell>
        <mxCell id="X1a7NF7hN5z-Y2Y6OMRs-23" value="entry:main.ts" style="rounded=1;whiteSpace=wrap;html=1;absoluteArcSize=1;arcSize=14;strokeWidth=2;" vertex="1" parent="1">
          <mxGeometry x="96.5" y="710" width="170" height="30" as="geometry" />
        </mxCell>
        <mxCell id="X1a7NF7hN5z-Y2Y6OMRs-25" value="" style="strokeWidth=2;html=1;shape=mxgraph.flowchart.annotation_2;align=left;labelPosition=right;pointerEvents=1;" vertex="1" parent="1">
          <mxGeometry x="280.5" y="595" width="50" height="100" as="geometry" />
        </mxCell>
        <mxCell id="X1a7NF7hN5z-Y2Y6OMRs-26" value="加载各种资源文件loader" style="text;html=1;align=center;verticalAlign=middle;resizable=0;points=[];autosize=1;strokeColor=none;fillColor=none;" vertex="1" parent="1">
          <mxGeometry x="325.5" y="608" width="150" height="30" as="geometry" />
        </mxCell>
        <mxCell id="X1a7NF7hN5z-Y2Y6OMRs-27" value="插件配置及其相关打包配置" style="text;html=1;align=center;verticalAlign=middle;resizable=0;points=[];autosize=1;strokeColor=none;fillColor=none;" vertex="1" parent="1">
          <mxGeometry x="321.5" y="650" width="170" height="30" as="geometry" />
        </mxCell>
        <mxCell id="X1a7NF7hN5z-Y2Y6OMRs-34" style="edgeStyle=orthogonalEdgeStyle;rounded=0;orthogonalLoop=1;jettySize=auto;html=1;entryX=0.5;entryY=0;entryDx=0;entryDy=0;entryPerimeter=0;" edge="1" parent="1" source="X1a7NF7hN5z-Y2Y6OMRs-28" target="X1a7NF7hN5z-Y2Y6OMRs-33">
          <mxGeometry relative="1" as="geometry" />
        </mxCell>
        <mxCell id="X1a7NF7hN5z-Y2Y6OMRs-28" value="vue单页面应用挂载在id为app的div下，以此为基础加载整个Vue的应用" style="rounded=1;whiteSpace=wrap;html=1;absoluteArcSize=1;arcSize=14;strokeWidth=2;" vertex="1" parent="1">
          <mxGeometry x="80" y="790" width="203" height="60" as="geometry" />
        </mxCell>
        <mxCell id="X1a7NF7hN5z-Y2Y6OMRs-33" value="webpack打包" style="strokeWidth=2;html=1;shape=mxgraph.flowchart.start_1;whiteSpace=wrap;" vertex="1" parent="1">
          <mxGeometry x="131.5" y="900" width="100" height="60" as="geometry" />
        </mxCell>
      </root>
    </mxGraphModel>
  </diagram>
</mxfile>
